<svg width="133" height="28" viewBox="0 0 133 28" fill="none" xmlns="http://www.w3.org/2000/svg">
<path d="M71.7925 5.74072V5.67773" stroke="black" stroke-width="3" stroke-linecap="round" stroke-linejoin="round"/>
<path d="M1.5 2.76562C1.52146 5.25849 1.71254 11.1844 2.30971 16.4516C2.44268 17.6245 2.70884 18.1243 3.26521 18.3935C6.15743 18.4747 8.27583 17.6755 10.5584 16.9281C11.1491 16.8124 11.7439 16.8124 12.3567 16.8124" stroke="black" stroke-width="3" stroke-linecap="round" stroke-linejoin="round"/>
<path d="M72.0098 11.6582V16.864" stroke="black" stroke-width="3" stroke-linecap="round" stroke-linejoin="round"/>
<path d="M80.3977 7.78352C80.3977 7.74329 80.3977 10.0252 80.4322 13.2321C80.4479 14.6895 82.4005 8.69818 84.3297 7.65048C84.8223 7.38297 85.449 7.49617 85.915 7.71036C86.7217 8.37852 87.2034 9.35115 87.4236 10.9295C87.5131 12.003 87.5574 13.6297 87.603 15.3058" stroke="black" stroke-width="3" stroke-linecap="round" stroke-linejoin="round"/>
<path d="M100.68 8.95801C100.125 8.95801 98.5511 9.10927 97.5542 9.57872C96.3375 10.1517 95.7758 11.7956 95.5091 13.1541C95.3053 14.1924 95.6169 15.0564 95.9389 15.4811C96.2726 15.9212 97.0579 16.0121 97.8773 15.9558C99.2763 15.8596 100.467 12.9 101.218 10.0093C101.353 9.48991 101.277 9.1266 101.283 9.08461C101.315 8.85221 101.887 12.6307 102.783 17.7403C103.326 20.8402 103.113 22.2636 102.91 22.8754C102.541 23.9831 101.358 24.6878 99.7921 25.3965C97.9722 25.6752 95.842 25.4669 94.8701 24.7249C94.6425 24.4876 94.4325 24.2178 94.1658 23.7844" stroke="black" stroke-width="3" stroke-linecap="round" stroke-linejoin="round"/>
<path d="M43.9237 12.6789C43.9085 12.3905 43.5078 11.3528 42.6886 10.5073C42.0011 9.79779 40.225 9.8185 38.7675 10.2338C38.275 10.3741 38.0203 10.8663 37.7707 11.3897C36.6508 13.7386 37.6727 17.3795 38.275 18.1087C38.5911 18.4913 39.6002 18.4271 40.652 18.3722C41.7269 18.316 42.6173 16.7633 43.2859 15.3063C43.5504 14.7299 43.7596 13.696 43.9209 13.293C44.2458 12.4813 44.4018 16.4878 44.9809 17.4969C45.3519 17.8703 45.8383 18.1481 46.3781 18.312C46.6356 18.3803 46.8598 18.4184 47.3405 18.4798" stroke="black" stroke-width="3" stroke-linecap="round" stroke-linejoin="round"/>
<path d="M26.3685 18.4462C25.8367 18.4462 24.3172 18.2655 22.75 17.3126C21.7509 16.7052 21.5747 15.2935 21.563 13.5897C21.5586 12.9381 21.9751 12.5 22.3243 12.1116C23.1057 11.2425 24.7093 10.9862 26.7101 10.9399C27.8278 10.914 28.6397 12.1442 29.1647 13.1163C29.8846 14.4492 29.132 16.4529 28.4967 17.3001C28.2806 17.5141 27.992 17.7614 27.7309 17.9357C27.4698 18.1099 27.245 18.2037 26.9072 18.3002" stroke="black" stroke-width="3" stroke-linecap="round" stroke-linejoin="round"/>
<path d="M63.6575 1.5C63.6575 1.53499 63.6279 3.1455 63.4416 7.37531C63.3253 10.0147 63.0021 13.6465 62.8533 15.3556C62.7046 17.0647 62.6984 16.7389 62.6028 16.0916C62.1711 13.1692 61.4243 12.0139 60.8635 11.2861C60.324 10.5859 59.362 10.3919 57.7202 10.3183C57.2005 10.295 56.7775 10.5705 56.313 10.8566C55.9638 11.0717 55.7216 11.523 55.4743 12.0552C54.6343 13.8627 55.3749 17.0928 55.8242 17.6955C56.3153 18.3541 58.2012 18.0666 59.3512 17.8381C60.4224 17.1371 61.0521 16.5466 61.2984 16.2165C61.4421 16.008 61.6237 15.7163 61.8107 15.4158" stroke="black" stroke-width="3" stroke-linecap="round" stroke-linejoin="round"/>
<path d="M114.428 12.4531C114.428 12.4726 114.428 12.4922 114.503 12.6575C114.578 12.8228 114.729 13.1334 114.842 12.6642" stroke="black" stroke-width="3" stroke-linecap="round" stroke-linejoin="round"/>
<path d="M122.5 12.4531C122.5 12.4726 122.5 12.4922 122.575 12.6575C122.65 12.8228 122.801 13.1334 122.914 12.6642" stroke="black" stroke-width="3" stroke-linecap="round" stroke-linejoin="round"/>
<path d="M130.5 12.4531C130.5 12.4726 130.5 12.4922 130.575 12.6575C130.65 12.8228 130.801 13.1334 130.914 12.6642" stroke="black" stroke-width="3" stroke-linecap="round" stroke-linejoin="round"/>
</svg>
